<svg version="1.1" xmlns="http://www.w3.org/2000/svg" xmlns:xlink="http://www.w3.org/1999/xlink" width="35" height="71"><defs/><g><path fill="rgb(0,0,0)" stroke="none" paint-order="stroke fill markers" fill-rule="evenodd" d=" M 10.828277587890625 54.42790365219116 C 10.828277587890625 58.23814249038696 13.958236694335938 61.33819514513016 17.805397033691406 61.33819514513016 C 21.652557373046875 61.33819514513016 24.782516479492188 58.23814249038696 24.782516479492188 54.42790365219116 C 24.782516479492188 50.617312014102936 21.652557373046875 47.51796495914459 17.805397033691406 47.51796495914459 C 13.958236694335938 47.51796495914459 10.828277587890625 50.617312014102936 10.828277587890625 54.42790365219116 Z M 22.609054565429688 54.42790365219116 C 22.609054565429688 57.051323652267456 20.454132080078125 59.18541020154953 17.805511474609375 59.18541020154953 C 15.156890869140625 59.18541020154953 13.002082824707031 57.051323652267456 13.002082824707031 54.42790365219116 C 13.002082824707031 51.80448365211487 15.156890869140625 49.67074990272522 17.805511474609375 49.67074990272522 C 20.454132080078125 49.67074990272522 22.609054565429688 51.80448365211487 22.609054565429688 54.42790365219116 Z M 15.870773315429688 2.46330189704895 C 10.475570678710938 10.11235636472702 12.518798828125 14.98593407869339 14.160224914550781 18.902012884616852 C 15.213653564453125 21.4143009185791 16.122886657714844 23.58437305688858 15.156547546386719 26.20567625761032 C 14.520484924316406 27.92980933189392 13.584701538085938 28.98609220981598 12.374717712402344 29.3441841006279 C 9.846145629882812 30.09353107213974 6.7209930419921875 27.82149976491928 6.6912384033203125 27.799978971481323 C 6.4289398193359375 27.605586230754852 6.092369079589844 27.538201451301575 5.774681091308594 27.617228627204895 C 5.4571075439453125 27.696255803108215 5.192291259765625 27.91322773694992 5.054046630859375 28.206757247447968 C 1.9086380004882812 34.90007680654526 3.1650848388671875 41.23601007461548 4.901039123535156 45.54334396123886 C 3.1258316040039062 48.064804792404175 2.0828170776367188 51.12781345844269 2.0828170776367188 54.42790365219116 C 2.0828170776367188 63.01470023393631 9.136039733886719 69.99978530406952 17.805511474609375 69.99978530406952 C 26.47498321533203 69.99978530406952 33.52820587158203 63.01470023393631 33.52820587158203 54.42790365219116 C 33.52820587158203 51.30950540304184 32.59722900390625 48.40278708934784 30.99688720703125 45.96493983268738 C 32.54218292236328 43.39937901496887 33.358489990234375 40.20971518754959 33.358489990234375 36.83095061779022 C 33.358489990234375 35.72809815406799 33.271629333496094 34.605488896369934 33.09516143798828 33.47758764028549 C 32.490455627441406 29.614781618118286 30.559951782226562 23.98374253511429 24.795562744140625 19.09570002555847 C 24.579498291015625 18.912244081497192 24.364120483398438 18.724907338619232 24.15595245361328 18.537923395633698 C 23.71112060546875 18.13855391740799 23.023788452148438 18.17171710729599 22.620498657226562 18.612364172935486 C 22.2178955078125 19.05301123857498 22.251083374023438 19.733562231063843 22.696029663085938 20.13293170928955 C 22.919532775878906 20.33367484807968 23.150360107421875 20.534770786762238 23.381759643554688 20.731633126735687 C 31.47742462158203 27.59535503387451 32.79395294189453 37.78139352798462 29.560882568359375 44.09368920326233 C 29.05242156982422 43.52709257602692 28.504478454589844 43.00247913599014 27.92426300048828 42.51949608325958 C 27.875396728515625 42.478924095630646 27.826644897460938 42.43764650821686 27.77709197998047 42.39742732048035 C 27.752487182617188 42.37731772661209 27.727882385253906 42.35826653242111 27.703163146972656 42.338156938552856 C 27.61481475830078 42.26759696006775 27.525779724121094 42.19738978147507 27.435943603515625 42.127888202667236 C 27.435714721679688 42.127888202667236 27.43537139892578 42.12753540277481 27.435256958007812 42.127182602882385 C 24.883338928222656 40.16314560174942 21.70703125 38.95974516868591 18.255836486816406 38.863077998161316 C 18.24530792236328 38.863077998161316 18.234893798828125 38.86201959848404 18.224708557128906 38.861666798591614 C 18.085662841796875 38.858491599559784 17.946044921875 38.85637480020523 17.806198120117188 38.85637480020523 C 13.4764404296875 38.85637480020523 9.44720458984375 40.56886547803879 6.494972229003906 43.61070615053177 C 5.2611846923828125 40.041076838970184 4.5681304931640625 35.27616149187088 6.538459777832031 30.246293425559998 C 7.9784698486328125 31.045737981796265 10.54766845703125 32.12812805175781 12.988578796386719 31.40982747077942 C 14.896652221679688 30.848170042037964 16.313201904296875 29.3455953001976 17.198974609375 26.94338083267212 C 18.456565856933594 23.533569872379303 17.29315948486328 20.75985711812973 16.168548583984375 18.07681393623352 C 14.914962768554688 15.086129248142242 13.627845764160156 12.015006184577942 15.466110229492188 7.563024342060089 C 15.791580200195312 10.225605130195618 16.92809295654297 13.743020057678223 20.083343505859375 17.45870852470398 C 20.469696044921875 17.913467586040497 21.155311584472656 17.97238516807556 21.61456298828125 17.58995008468628 C 22.07427215576172 17.20716220140457 22.133209228515625 16.528375208377838 21.746856689453125 16.07361614704132 C 16.074020385742188 9.392644584178925 17.728836059570312 3.6353031396865845 17.800247192382812 3.398574411869049 C 17.959434509277344 2.891953766345978 17.721397399902344 2.346172332763672 17.240402221679688 2.1126188039779663 C 16.75860595703125 1.8794180750846863 16.177589416503906 2.028299629688263 15.870773315429688 2.46330189704895 Z M 16.399375915527344 41.08113092184067 C 16.415855407714844 41.079719722270966 16.432449340820312 41.07830852270126 16.44904327392578 41.076544523239136 C 16.540023803710938 41.06737172603607 16.631576538085938 41.059257328510284 16.72278594970703 41.05184853076935 C 16.765586853027344 41.04867333173752 16.808502197265625 41.045850932598114 16.851303100585938 41.04302853345871 C 16.92420196533203 41.03773653507233 16.997215270996094 41.03279733657837 17.070457458496094 41.029269337654114 C 17.13763427734375 41.02574133872986 17.205039978027344 41.022918939590454 17.272674560546875 41.02009654045105 C 17.326004028320312 41.01833254098892 17.37921905517578 41.01586294174194 17.432777404785156 41.014098942279816 C 17.556716918945312 41.010923743247986 17.680885314941406 41.00915974378586 17.805625915527344 41.00915974378586 C 17.934829711914062 41.00915974378586 18.063804626464844 41.01127654314041 18.19232177734375 41.01480454206467 C 18.220474243164062 41.01586294174194 18.248512268066406 41.017274141311646 18.27666473388672 41.0179797410965 C 18.382522583007812 41.02186053991318 18.48815155029297 41.026799738407135 18.593551635742188 41.032444536685944 C 18.614036560058594 41.033855736255646 18.63463592529297 41.03491413593292 18.655120849609375 41.0359725356102 C 21.471054077148438 41.21307808160782 24.14977264404297 42.26301056146622 26.3194580078125 43.99772763252258 C 26.32403564453125 44.00125563144684 26.32861328125 44.00513643026352 26.33319091796875 44.008664429187775 C 26.42394256591797 44.081341207027435 26.51343536376953 44.1554291844368 26.60224151611328 44.23057556152344 C 26.616775512695312 44.24327635765076 26.63153839111328 44.2549187541008 26.645957946777344 44.26726675033569 C 26.735679626464844 44.34347152709961 26.824371337890625 44.42179310321808 26.912147521972656 44.50046747922897 C 26.97039794921875 44.55303466320038 27.027618408203125 44.606307446956635 27.085067749023438 44.659933030605316 C 27.1104736328125 44.6832178235054 27.1361083984375 44.70720821619034 27.16162872314453 44.73084580898285 C 27.22869110107422 44.7950553894043 27.295181274414062 44.858559370040894 27.360984802246094 44.92382735013962 C 27.372772216796875 44.93546974658966 27.384445190429688 44.94675934314728 27.39623260498047 44.95840173959732 C 29.841033935546875 47.387428998947144 31.3548583984375 50.73549997806549 31.3548583984375 54.42790365219116 C 31.354400634765625 61.82717579603195 25.27655792236328 67.84700036048889 17.805511474609375 67.84700036048889 C 10.334465026855469 67.84700036048889 4.256507873535156 61.82717579603195 4.256507873535156 54.42790365219116 C 4.256507873535156 47.49891376495361 9.586708068847656 41.78002750873566 16.399375915527344 41.08113092184067 Z"/></g></svg>